HIERARCHY
ROOT Hips
{
	OFFSET 0.00000 0.00000 0.00000
	CHANNELS 6 Xposition Yposition Zposition Zrotation Yrotation Xrotation 
	JOINT LHipJoint
	{
		OFFSET 0 0 0
		CHANNELS 3 Zrotation Yrotation Xrotation
		JOINT LeftHip
		{
			OFFSET 1.75344 -1.53157 0.77399
			CHANNELS 3 Zrotation Yrotation Xrotation
			JOINT LeftKnee
			{
				OFFSET 2.25415 -6.19323 0.00000
				CHANNELS 3 Zrotation Yrotation Xrotation
				JOINT LeftAnkle
				{
					OFFSET 2.30342 -6.32861 0.00000
					CHANNELS 3 Zrotation Yrotation Xrotation
					JOINT LeftToe
					{
						OFFSET 0.10958 -0.30108 1.49206
						CHANNELS 3 Zrotation Yrotation Xrotation
						End Site
						{
							OFFSET 0.00000 -0.00000 0.77783
						}
					}
				}
			}
		}
	}
	JOINT RHipJoint
	{
		OFFSET 0 0 0
		CHANNELS 3 Zrotation Yrotation Xrotation
		JOINT RightHip
		{
			OFFSET -1.81912 -1.53156 0.77399
			CHANNELS 3 Zrotation Yrotation Xrotation
			JOINT RightKnee
			{
				OFFSET -2.22882 -6.12365 0.00000
				CHANNELS 3 Zrotation Yrotation Xrotation
				JOINT RightAnkle
				{
					OFFSET -2.21943 -6.09785 0.00000
					CHANNELS 3 Zrotation Yrotation Xrotation
					JOINT RightToe
					{
						OFFSET -0.18931 -0.52012 1.59379
						CHANNELS 3 Zrotation Yrotation Xrotation
						End Site
						{
							OFFSET -0.00000 -0.00000 0.84686
						}
					}
				}
			}
		}
	}
	JOINT lowerback
	{
		OFFSET 0 0 0
		CHANNELS 3 Zrotation Yrotation Xrotation
		JOINT Chest
		{
			OFFSET -0.00200 1.66634 -0.14248
			CHANNELS 3 Zrotation Yrotation Xrotation
			JOINT Chest2
			{
				OFFSET -0.00875 1.64542 0.09514
				CHANNELS 3 Zrotation Yrotation Xrotation
				JOINT lowerneck
				{
					OFFSET 0 0 0
					CHANNELS 3 Zrotation Yrotation Xrotation
					JOINT Neck
					{
						OFFSET 0.02257 1.59605 0.00839
						CHANNELS 3 Zrotation Yrotation Xrotation
						JOINT Head
						{
							OFFSET -0.10214 1.57530 -0.23335
							CHANNELS 3 Zrotation Yrotation Xrotation
							End Site
							{
								OFFSET -0.03588 1.60717 -0.08062
							}
						}
					}
				}
				JOINT LeftCollar
				{
					OFFSET 0 0 0
					CHANNELS 3 Zrotation Yrotation Xrotation
					JOINT LeftShoulder
					{
						OFFSET 2.54983 1.10186 0.40078
CHANNELS 3 Zrotation Xrotation Yrotation
						JOINT LeftElbow
						{
OFFSET 0 -4.288400 0.000000
CHANNELS 3 Zrotation Xrotation Yrotation
							JOINT LeftWrist
							{
OFFSET 0 -3.065520 -0.000000
CHANNELS 3 Zrotation Xrotation Yrotation
								JOINT lhand
								{
									OFFSET 0 0 0
CHANNELS 3 Zrotation Xrotation Yrotation
									JOINT LFingers
									{
OFFSET 0 -0.753040 0.000000
CHANNELS 3 Zrotation Xrotation Yrotation
										End Site
										{
OFFSET 0 -0.607120 0.000000
										}
									}
								}
								JOINT LThumb
								{
OFFSET 0 0.000000 0.000000
CHANNELS 3 Zrotation Xrotation Yrotation
									End Site
									{
OFFSET 0 -0.616390 0.616390
									}
								}
							}
						}
					}
				}
				JOINT RightCollar
				{
					OFFSET 0 0 0
					CHANNELS 3 Zrotation Yrotation Xrotation
					JOINT RightShoulder
					{
						OFFSET -2.60909 1.35448 0.21802
CHANNELS 3 Zrotation Xrotation Yrotation
						JOINT RightElbow
						{
OFFSET 0 -4.521720 -0.000000
CHANNELS 3 Zrotation Xrotation Yrotation
							JOINT RightWrist
							{
OFFSET 0 -2.891400 0.000000
CHANNELS 3 Zrotation Xrotation Yrotation
								JOINT rhand
								{
									OFFSET 0 0 0
CHANNELS 3 Zrotation Xrotation Yrotation
									JOINT RFingers
									{
OFFSET 0 -0.680540 0.000000
CHANNELS 3 Zrotation Xrotation Yrotation
										End Site
										{
OFFSET 0 -0.548670 0.000000
										}
									}
								}
								JOINT RThumb
								{
OFFSET 0 0.000000 0.000000
CHANNELS 3 Zrotation Xrotation Yrotation
									End Site
									{
OFFSET 0 -0.557050 0.557050
									}
								}
							}
						}
					}
				}
			}
		}
	}
}
MOTION
Frames: 11
Frame Time: 0.008333333333333333
8.734674 15.471582 19.071288 -181.000716 -7.890225 191.463698 0.000000 0.000000 0.000000 -20.255843 -9.091976 -18.770042 6.375097 14.779730 46.464564 -0.073132 -9.883636 -5.434768 0.968227 -6.261622 -17.546343 0.000000 0.000000 0.000000 23.351867 3.427303 -16.146777 -6.056523 -14.479713 45.202189 0.233955 -10.062474 -9.129841 -0.490480 4.489332 -12.457701 2.546066 2.828077 11.509958 -0.479207 4.125881 -4.689322 -2.812677 1.736366 -11.350434 -2.499211 -0.749383 -5.364069 0.557638 -0.979457 -2.395897 0.562997 -0.519882 0.163430 0.000000 0.000000 0.000000 45.590696 -34.373501 -53.540673 32.819289 -43.189233 13.298770 -6.748984 8.857368 46.102210 0.000000 0.000000 0.000000 -7.125000 0.000000 0.000000 -21.373843 -13.636051 -27.526758 0.000000 0.000000 0.000000 -70.448831 -39.853492 24.698764 -35.218513 -44.967513 -14.967600 8.222670 -8.648345 61.629850 0.000000 0.000000 0.000000 7.125000 0.000000 0.000000 99.391672 69.455329 -78.359563
8.733281 15.647878 18.938261 -181.046361 -8.693811 190.575990 0.000000 0.000000 0.000000 -20.315369 -9.265165 -16.890738 5.971343 14.395530 44.857154 -0.146056 -8.512552 -1.742169 0.915132 -6.094905 -17.060104 0.000000 0.000000 0.000000 23.495551 3.260705 -14.104536 -5.623887 -14.047573 43.441086 0.374342 -11.112828 -5.715251 -0.620904 5.024844 -13.983016 2.518207 2.832817 11.227896 -0.473102 4.113773 -4.909840 -2.778027 1.724513 -11.433190 -2.256039 -0.649092 -4.724599 0.540367 -0.812748 -0.998669 0.521814 -0.421926 0.484291 0.000000 0.000000 0.000000 43.195890 -33.318228 -55.317737 32.150046 -42.663659 12.843471 -6.749936 9.773545 45.938396 0.000000 0.000000 0.000000 -7.125000 0.000000 0.000000 -21.368930 -13.481174 -27.478262 0.000000 0.000000 0.000000 -69.362125 -38.244300 28.073268 -35.276755 -45.008734 -15.008774 7.871565 -7.831651 61.811184 0.000000 0.000000 0.000000 7.125000 0.000000 0.000000 99.826137 69.547276 -78.958808
8.731902 15.833737 18.805270 -181.122823 -9.510763 189.739880 0.000000 0.000000 0.000000 -20.420915 -9.530469 -15.072650 5.581676 14.005702 43.269762 -0.137883 -6.939333 1.798610 0.920085 -6.110405 -17.105371 0.000000 0.000000 0.000000 23.591405 3.365976 -12.189824 -5.223564 -13.626322 41.770010 0.461278 -12.534778 -1.834109 -0.593599 4.883258 -13.585184 2.452267 2.830647 10.897301 -0.481600 4.083708 -5.085422 -2.729475 1.709590 -11.438138 -1.987094 -0.563702 -4.097994 0.501017 -0.685064 0.288538 0.469241 -0.349903 0.774873 0.000000 0.000000 0.000000 40.771739 -32.224763 -56.806813 31.444578 -42.096438 12.368132 -7.036158 10.648826 45.794144 0.000000 0.000000 0.000000 -7.125000 0.000000 0.000000 -21.490859 -13.331697 -27.617111 0.000000 0.000000 0.000000 -68.249700 -36.539430 31.183821 -35.376563 -45.079090 -15.079389 7.507280 -6.827840 61.740217 0.000000 0.000000 0.000000 7.125000 0.000000 0.000000 99.591050 69.665546 -78.827077
8.730396 16.027879 18.672325 -181.243063 -10.355104 188.944092 0.000000 0.000000 0.000000 -20.593019 -9.868043 -13.297039 5.205195 13.610108 41.699615 -0.052717 -5.186837 5.133936 0.965135 -6.254917 -17.525877 0.000000 0.000000 0.000000 23.631011 3.714630 -10.408042 -4.857972 -13.220993 40.203215 0.486817 -14.293090 2.512294 -0.378339 3.949315 -10.934257 2.339749 2.817929 10.497669 -0.506767 4.029459 -5.179245 -2.660496 1.691767 -11.312107 -1.689655 -0.492038 -3.524963 0.434287 -0.593567 1.438584 0.402749 -0.302011 1.033634 0.000000 0.000000 0.000000 38.374166 -31.163818 -58.012541 30.687469 -41.474345 11.862688 -7.479811 11.397192 45.642744 0.000000 0.000000 0.000000 -7.125000 0.000000 0.000000 -21.682709 -13.168622 -27.854454 0.000000 0.000000 0.000000 -67.153298 -34.762275 33.951443 -35.510639 -45.173304 -15.174340 7.225792 -5.648817 61.354970 0.000000 0.000000 0.000000 7.125000 0.000000 0.000000 98.530836 69.785346 -77.761456
8.729223 16.210002 18.547661 -181.401367 -11.278177 188.179689 0.000000 0.000000 0.000000 -20.828496 -10.308656 -11.660793 4.859565 13.220724 40.206063 0.118193 -3.241019 8.299647 0.920502 -6.112150 -17.110256 0.000000 0.000000 0.000000 23.660400 4.098810 -8.748197 -4.551478 -12.857334 38.841363 0.403707 -15.928530 6.124406 -0.426050 4.186990 -11.603531 2.200720 2.766481 10.280075 -0.566058 3.923190 -5.255172 -2.615423 1.647501 -11.277295 -1.450514 -0.370891 -3.115938 0.474670 -0.449115 2.484122 0.379663 -0.231214 1.290657 0.000000 0.000000 0.000000 35.966043 -30.001238 -58.836966 29.899175 -40.803972 11.344756 -7.684800 11.890133 45.358457 0.000000 0.000000 0.000000 -7.125000 0.000000 0.000000 -21.766112 -12.891956 -27.901212 0.000000 0.000000 0.000000 -66.065912 -32.971096 36.430583 -35.642779 -45.265648 -15.268223 7.075989 -4.352264 60.735533 0.000000 0.000000 0.000000 7.125000 0.000000 0.000000 96.842774 69.870288 -75.966686
8.728475 16.389417 18.427137 -181.564449 -12.288845 187.445017 0.000000 0.000000 0.000000 -21.083297 -10.776449 -10.141341 4.530392 12.829801 38.742452 0.332210 -1.322011 11.269673 0.848475 -5.871542 -16.413001 0.000000 0.000000 0.000000 23.688302 4.515002 -7.260412 -4.296533 -12.542039 37.681830 0.211872 -17.251438 9.756746 -0.478379 4.432045 -12.295951 2.075866 2.697141 10.091201 -0.632834 3.798659 -5.242495 -2.581871 1.597820 -11.159240 -1.310011 -0.227872 -2.890175 0.591977 -0.278809 3.369333 0.397721 -0.147994 1.531383 0.000000 0.000000 0.000000 33.571881 -28.933527 -59.298161 29.094848 -40.099995 10.823585 -8.041409 12.360776 44.995599 0.000000 0.000000 0.000000 -7.125000 0.000000 0.000000 -21.916778 -12.535924 -28.023091 0.000000 0.000000 0.000000 -65.168902 -31.178909 38.561411 -35.777414 -45.359213 -15.363964 7.083488 -3.205527 60.212452 0.000000 0.000000 0.000000 7.125000 0.000000 0.000000 95.435870 69.887754 -74.423343
8.728522 16.566536 18.309535 -181.724601 -13.345427 186.781533 0.000000 0.000000 0.000000 -21.336299 -11.268697 -8.761816 4.217742 12.441168 37.316242 0.565162 0.581811 13.955726 0.725193 -5.420537 -15.116778 0.000000 0.000000 0.000000 23.704903 4.988982 -5.973464 -4.086024 -12.272789 36.705713 -0.055755 -18.373657 13.308549 -0.420548 4.064816 -11.271312 1.930977 2.623447 9.874165 -0.684627 3.668762 -5.170886 -2.516618 1.551089 -10.960476 -1.275964 -0.077876 -2.831449 0.735943 -0.096871 4.132819 0.442908 -0.059704 1.764747 0.000000 0.000000 0.000000 31.140828 -27.948179 -59.442122 28.252187 -39.342583 10.285013 -8.576967 12.954162 44.620570 0.000000 0.000000 0.000000 -7.125000 0.000000 0.000000 -22.148641 -12.163540 -28.258540 0.000000 0.000000 0.000000 -64.447280 -29.344767 40.466644 -35.951641 -45.479514 -15.488082 6.980549 -2.036110 59.759612 0.000000 0.000000 0.000000 7.125000 0.000000 0.000000 94.188832 69.929742 -73.099089
8.729695 16.741403 18.194325 -181.876309 -14.424384 186.224538 0.000000 0.000000 0.000000 -21.573022 -11.786043 -7.552111 3.923341 12.057647 35.936287 0.802618 2.476767 16.269160 0.529292 -4.661558 -12.945890 0.000000 0.000000 0.000000 23.702411 5.544071 -4.927266 -3.919658 -12.052703 35.918885 -0.384602 -19.350450 16.703434 -0.163670 2.603657 -7.177252 1.740866 2.554116 9.587606 -0.704709 3.541679 -5.054431 -2.387190 1.513272 -10.674503 -1.364497 0.069728 -2.945779 0.875265 0.088257 4.788314 0.508501 0.029195 1.996046 0.000000 0.000000 0.000000 28.634717 -27.045114 -59.267695 27.352200 -38.512880 9.717685 -9.328178 13.780933 44.277065 0.000000 0.000000 0.000000 -7.125000 0.000000 0.000000 -22.479393 -11.815784 -28.645139 0.000000 0.000000 0.000000 -63.908753 -27.436693 42.206374 -36.194593 -45.646539 -15.661410 6.574749 -0.724973 59.366491 0.000000 0.000000 0.000000 7.125000 0.000000 0.000000 93.035853 70.061002 -71.994333
8.733640 16.905984 18.085535 -181.969653 -15.534932 185.820018 0.000000 0.000000 0.000000 -21.734601 -12.316813 -6.629411 3.655642 11.684049 34.627755 1.045035 4.438039 18.322000 0.345575 -3.733032 -10.332166 0.000000 0.000000 0.000000 23.750623 6.099161 -4.245041 -3.801078 -11.890178 35.345595 -0.789760 -20.927662 20.277641 -0.266898 -1.890749 5.232648 1.520625 2.471726 9.325413 -0.676639 3.398911 -4.978683 -2.191081 1.468014 -10.454189 -1.497897 0.190119 -3.219808 0.902456 0.247558 5.420026 0.548196 0.101679 2.251567 0.000000 0.000000 0.000000 26.201196 -25.998255 -58.762417 26.497081 -37.690838 9.191721 -9.922973 14.800816 43.862575 0.000000 0.000000 0.000000 -7.125000 0.000000 0.000000 -22.743246 -11.410978 -28.914280 0.000000 0.000000 0.000000 -63.423557 -25.404230 43.967918 -36.544935 -45.883747 -15.912654 6.352357 0.200962 58.923615 0.000000 0.000000 0.000000 7.125000 0.000000 0.000000 91.772711 70.123174 -70.704710
8.737181 17.066679 17.979688 -182.098337 -16.741765 185.510072 0.000000 0.000000 0.000000 -21.931166 -12.855782 -5.871542 3.408273 11.324554 33.386973 1.307359 6.282293 20.419475 0.200157 -2.810712 -7.756693 0.000000 0.000000 0.000000 23.766696 6.567728 -3.782242 -3.704173 -11.755478 34.873030 -1.036697 -21.548712 22.205791 -0.359613 -3.839816 10.627974 1.310927 2.368975 9.081922 -0.684744 3.227215 -4.934152 -2.037627 1.404178 -10.277507 -1.448053 0.284952 -3.448047 0.748273 0.374186 5.964875 0.497504 0.156331 2.472238 0.000000 0.000000 0.000000 23.917051 -24.903616 -58.184779 25.656687 -36.862171 8.683104 -10.349094 15.886971 43.464501 0.000000 0.000000 0.000000 -7.125000 0.000000 0.000000 -22.933589 -11.027183 -29.079066 0.000000 0.000000 0.000000 -62.890974 -23.309278 45.690762 -36.891699 -46.115958 -16.162128 6.365446 0.762028 58.641346 0.000000 0.000000 0.000000 7.125000 0.000000 0.000000 91.006556 70.109837 -69.863729
8.740284 17.221145 17.877048 -182.200578 -18.015001 185.268895 0.000000 0.000000 0.000000 -22.098411 -13.371698 -5.282844 3.179617 10.978164 32.208612 1.530606 8.002091 22.150112 0.111131 -2.149076 -5.917773 0.000000 0.000000 0.000000 23.804681 6.953583 -3.522078 -3.623588 -11.641682 34.476186 -1.269456 -21.315850 23.499870 -0.412224 -4.120210 11.415322 1.186624 2.257281 8.854304 -0.723645 3.052628 -4.908159 -1.966822 1.330414 -10.124407 -1.307212 0.361570 -3.647632 0.517715 0.477828 6.410216 0.405798 0.199621 2.656563 0.000000 0.000000 0.000000 21.782264 -23.800306 -57.544750 24.828107 -36.024317 8.190048 -10.746075 17.200580 43.156261 0.000000 0.000000 0.000000 -7.125000 0.000000 0.000000 -23.112273 -10.730482 -29.252614 0.000000 0.000000 0.000000 -62.307642 -21.153385 47.284972 -37.185924 -46.311326 -16.374319 6.205311 1.369601 58.445210 0.000000 0.000000 0.000000 7.125000 0.000000 0.000000 90.425250 70.153899 -69.296370
